<svg width="26" height="26" viewBox="0 0 26 26" fill="none" xmlns="http://www.w3.org/2000/svg">
<path d="M13 4.33331C14.1493 4.33331 15.2515 4.78986 16.0641 5.60252C16.8768 6.41517 17.3333 7.51737 17.3333 8.66665C17.3333 9.81592 16.8768 10.9181 16.0641 11.7308C15.2515 12.5434 14.1493 13 13 13C11.8507 13 10.7485 12.5434 9.93586 11.7308C9.12321 10.9181 8.66666 9.81592 8.66666 8.66665C8.66666 7.51737 9.12321 6.41517 9.93586 5.60252C10.7485 4.78986 11.8507 4.33331 13 4.33331ZM13 15.1666C17.7883 15.1666 21.6667 17.1058 21.6667 19.5V21.6666H4.33333V19.5C4.33333 17.1058 8.21166 15.1666 13 15.1666Z" fill="#1B1B1B"/>
</svg>
