<svg width="22" height="22" viewBox="0 0 22 22" fill="none" xmlns="http://www.w3.org/2000/svg">
<path d="M11 1.375C8.99502 1.37737 7.07284 2.17489 5.65511 3.59262C4.23738 5.01035 3.43986 6.93253 3.43749 8.9375C3.43509 10.576 3.97029 12.17 4.96099 13.475C4.96099 13.475 5.16724 13.7466 5.20093 13.7858L11 20.625L16.8018 13.7823C16.8321 13.7459 17.039 13.475 17.039 13.475L17.0397 13.4729C18.0299 12.1685 18.5648 10.5752 18.5625 8.9375C18.5601 6.93253 17.7626 5.01035 16.3449 3.59262C14.9271 2.17489 13.005 1.37737 11 1.375ZM11 11.6875C10.4561 11.6875 9.92441 11.5262 9.47217 11.224C9.01994 10.9219 8.66746 10.4924 8.45932 9.98988C8.25118 9.48738 8.19672 8.93445 8.30283 8.401C8.40894 7.86755 8.67085 7.37755 9.05545 6.99296C9.44004 6.60836 9.93005 6.34645 10.4635 6.24034C10.9969 6.13423 11.5499 6.18869 12.0524 6.39683C12.5549 6.60497 12.9844 6.95745 13.2865 7.40968C13.5887 7.86192 13.75 8.3936 13.75 8.9375C13.7491 9.66657 13.4591 10.3655 12.9435 10.881C12.428 11.3966 11.7291 11.6866 11 11.6875Z" fill="#1B1B1B"/>
</svg>
