<svg width="22" height="23" viewBox="0 0 22 23" fill="none" xmlns="http://www.w3.org/2000/svg">
<path d="M7.17379 13.6001H3.76421C2.35192 13.6001 1.20703 14.7606 1.20703 16.1921V19.6481C1.20703 21.0796 2.35192 22.2401 3.76421 22.2401H7.17379C8.58609 22.2401 9.73098 21.0796 9.73098 19.6481V16.1921C9.73098 14.7606 8.58609 13.6001 7.17379 13.6001Z" stroke="#F5F5F5" stroke-width="1.25"/>
<path d="M18.6982 13.6001H15.2886C13.8763 13.6001 12.7314 14.7606 12.7314 16.1921V19.6481C12.7314 21.0796 13.8763 22.2401 15.2886 22.2401H18.6982C20.1105 22.2401 21.2554 21.0796 21.2554 19.6481V16.1921C21.2554 14.7606 20.1105 13.6001 18.6982 13.6001Z" stroke="#F5F5F5" stroke-width="1.25"/>
<path d="M18.6982 1H15.2886C13.8763 1 12.7314 2.28942 12.7314 3.88V7.71999C12.7314 9.31057 13.8763 10.6 15.2886 10.6H18.6982C20.1105 10.6 21.2554 9.31057 21.2554 7.71999V3.88C21.2554 2.28942 20.1105 1 18.6982 1Z" stroke="#F5F5F5" stroke-width="1.25"/>
<path d="M7.17379 1H3.76421C2.35192 1 1.20703 2.28942 1.20703 3.88V7.71999C1.20703 9.31057 2.35192 10.6 3.76421 10.6H7.17379C8.58609 10.6 9.73098 9.31057 9.73098 7.71999V3.88C9.73098 2.28942 8.58609 1 7.17379 1Z" stroke="#F5F5F5" stroke-width="1.25"/>
</svg>
