<svg width="24" height="24" viewBox="0 0 24 24" fill="none" xmlns="http://www.w3.org/2000/svg">
<mask id="mask0_501_1057" style="mask-type:alpha" maskUnits="userSpaceOnUse" x="2" y="3" width="20" height="18">
<path fill-rule="evenodd" clip-rule="evenodd" d="M17.8442 6.10797C18.2542 6.16432 18.5983 6.25008 18.9134 6.3806C20.1386 6.88807 21.1119 7.86144 21.6194 9.08658C22 10.0054 22 11.1703 22 13.5C22 15.8297 22 16.9946 21.6194 17.9134C21.1119 19.1386 20.1386 20.1119 18.9134 20.6194C17.9946 21 16.8297 21 14.5 21H9.5C7.17029 21 6.00544 21 5.08658 20.6194C3.86144 20.1119 2.88807 19.1386 2.3806 17.9134C2 16.9946 2 15.8297 2 13.5C2 11.1703 2 10.0054 2.3806 9.08658C2.88807 7.86144 3.86144 6.88807 5.08658 6.3806C5.4017 6.25008 5.74575 6.16432 6.1558 6.10797C6.48525 4.95115 6.73629 4.29054 7.22248 3.82753C7.38009 3.67744 7.55356 3.54494 7.73983 3.43238C8.45536 3 9.37053 3 11.2009 3H12.7991C14.6295 3 15.5446 3 16.2602 3.43238C16.4464 3.54494 16.6199 3.67744 16.7775 3.82753C17.2637 4.29054 17.5148 4.95115 17.8442 6.10797Z" fill="white"/>
</mask>
<g mask="url(#mask0_501_1057)">
<path d="M17.8442 6.10797L16.4016 6.51882L16.6698 7.46067L17.64 7.594L17.8442 6.10797ZM18.9134 6.3806L19.4874 4.99478L18.9134 6.3806ZM21.6194 9.08658L20.2336 9.66061L21.6194 9.08658ZM21.6194 17.9134L20.2336 17.3394L21.6194 17.9134ZM18.9134 20.6194L19.4874 22.0052L18.9134 20.6194ZM5.08658 20.6194L4.51256 22.0052L5.08658 20.6194ZM2.3806 17.9134L3.76642 17.3394L2.3806 17.9134ZM2.3806 9.08658L0.994784 8.51256L2.3806 9.08658ZM5.08658 6.3806L5.66061 7.76642L5.08658 6.3806ZM6.1558 6.10797L6.36001 7.594L7.3302 7.46067L7.59843 6.51882L6.1558 6.10797ZM7.22248 3.82753L8.25694 4.91376L7.22248 3.82753ZM7.73983 3.43238L8.51561 4.71619L7.73983 3.43238ZM16.2602 3.43238L15.4844 4.71619L16.2602 3.43238ZM16.7775 3.82753L17.812 2.74129L16.7775 3.82753ZM17.64 7.594C17.9576 7.63764 18.1712 7.69674 18.3394 7.76642L19.4874 4.99478C19.0254 4.80342 18.551 4.69099 18.0484 4.62193L17.64 7.594ZM18.3394 7.76642C19.197 8.12165 19.8783 8.80301 20.2336 9.66061L23.0052 8.51256C22.3455 6.91988 21.0801 5.65449 19.4874 4.99478L18.3394 7.76642ZM20.2336 9.66061C20.3356 9.90681 20.4135 10.2454 20.4559 10.8663C20.4992 11.5007 20.5 12.3146 20.5 13.5H23.5C23.5 12.3557 23.5008 11.4223 23.4489 10.6621C23.3962 9.88846 23.2838 9.18522 23.0052 8.51256L20.2336 9.66061ZM20.5 13.5C20.5 14.6854 20.4992 15.4993 20.4559 16.1337C20.4135 16.7546 20.3356 17.0932 20.2336 17.3394L23.0052 18.4874C23.2838 17.8148 23.3962 17.1115 23.4489 16.3379C23.5008 15.5777 23.5 14.6443 23.5 13.5H20.5ZM20.2336 17.3394C19.8783 18.197 19.197 18.8783 18.3394 19.2336L19.4874 22.0052C21.0801 21.3455 22.3455 20.0801 23.0052 18.4874L20.2336 17.3394ZM18.3394 19.2336C18.0932 19.3356 17.7546 19.4135 17.1337 19.4559C16.4993 19.4992 15.6854 19.5 14.5 19.5V22.5C15.6443 22.5 16.5777 22.5008 17.3379 22.4489C18.1115 22.3962 18.8148 22.2838 19.4874 22.0052L18.3394 19.2336ZM14.5 19.5H9.5V22.5H14.5V19.5ZM9.5 19.5C8.31462 19.5 7.50071 19.4992 6.86633 19.4559C6.24542 19.4135 5.9068 19.3356 5.66061 19.2336L4.51256 22.0052C5.18522 22.2838 5.88846 22.3962 6.66212 22.4489C7.4223 22.5008 8.35567 22.5 9.5 22.5V19.5ZM5.66061 19.2336C4.80301 18.8783 4.12165 18.197 3.76642 17.3394L0.994784 18.4874C1.65449 20.0801 2.91988 21.3455 4.51256 22.0052L5.66061 19.2336ZM3.76642 17.3394C3.66445 17.0932 3.58646 16.7546 3.5441 16.1337C3.50081 15.4993 3.5 14.6854 3.5 13.5H0.500001C0.500001 14.6443 0.499189 15.5777 0.551056 16.3379C0.603842 17.1115 0.716158 17.8148 0.994784 18.4874L3.76642 17.3394ZM3.5 13.5C3.5 12.3146 3.50081 11.5007 3.5441 10.8663C3.58646 10.2454 3.66445 9.90681 3.76642 9.66061L0.994784 8.51256C0.716158 9.18522 0.603842 9.88846 0.551056 10.6621C0.499189 11.4223 0.500001 12.3557 0.500001 13.5H3.5ZM3.76642 9.66061C4.12165 8.80301 4.80301 8.12165 5.66061 7.76642L4.51256 4.99478C2.91988 5.65449 1.65449 6.91988 0.994784 8.51256L3.76642 9.66061ZM5.66061 7.76642C5.82885 7.69674 6.04245 7.63764 6.36001 7.594L5.95158 4.62193C5.44905 4.69099 4.97456 4.80342 4.51256 4.99478L5.66061 7.76642ZM7.59843 6.51882C7.93945 5.3214 8.10674 5.0568 8.25694 4.91376L6.18803 2.74129C5.36584 3.52429 5.03105 4.58091 4.71316 5.69711L7.59843 6.51882ZM8.25694 4.91376C8.33574 4.83872 8.42247 4.77247 8.51561 4.71619L6.96405 2.14857C6.68464 2.31741 6.42444 2.51615 6.18803 2.74129L8.25694 4.91376ZM8.51561 4.71619C8.61041 4.6589 8.77315 4.58893 9.19978 4.54678C9.65608 4.5017 10.256 4.5 11.2009 4.5V1.5C10.3154 1.5 9.54257 1.4983 8.90481 1.56132C8.23739 1.62726 7.58478 1.77348 6.96405 2.14857L8.51561 4.71619ZM11.2009 4.5H12.7991V1.5H11.2009V4.5ZM12.7991 4.5C13.744 4.5 14.3439 4.5017 14.8002 4.54678C15.2269 4.58893 15.3896 4.6589 15.4844 4.71619L17.036 2.14857C16.4152 1.77348 15.7626 1.62726 15.0952 1.56132C14.4574 1.4983 13.6846 1.5 12.7991 1.5V4.5ZM15.4844 4.71619C15.5775 4.77247 15.6643 4.83872 15.7431 4.91377L17.812 2.74129C17.5756 2.51615 17.3154 2.31741 17.036 2.14857L15.4844 4.71619ZM15.7431 4.91376C15.8933 5.0568 16.0606 5.3214 16.4016 6.51882L19.2868 5.69711C18.969 4.58091 18.6342 3.52429 17.812 2.74129L15.7431 4.91376Z" fill="#1B1B1B"/>
<path d="M15.25 13C15.25 11.2051 13.7949 9.75 12 9.75C10.2051 9.75 8.75 11.2051 8.75 13C8.75 14.7949 10.2051 16.25 12 16.25C13.7949 16.25 15.25 14.7949 15.25 13Z" stroke="#1B1B1B" stroke-width="1.5"/>
</g>
</svg>
