<svg width="27" height="27" viewBox="0 0 27 27" fill="none" xmlns="http://www.w3.org/2000/svg">
<path d="M9 21C9.82843 21 10.5 21.6716 10.5 22.5C10.5 23.3284 9.82843 24 9 24C8.17157 24 7.5 23.3284 7.5 22.5C7.5 21.6716 8.17157 21 9 21Z" stroke="#1B1B1B" stroke-width="1.5"/>
<path d="M16 21C16.8284 21 17.5 21.6716 17.5 22.5C17.5 23.3284 16.8284 24 16 24C15.1716 24 14.5 23.3284 14.5 22.5C14.5 21.6716 15.1716 21 16 21Z" stroke="#1B1B1B" stroke-width="1.5"/>
<path d="M5.75 15C5.75 13.5646 5.75159 12.5635 5.85315 11.8081C5.9518 11.0743 6.13225 10.6858 6.40901 10.409C6.68577 10.1322 7.07434 9.9518 7.80812 9.85315C8.56347 9.75159 9.56458 9.75 11 9.75H13.9172C15.5841 9.75 16.7537 9.75179 17.623 9.87517C18.4715 9.9956 18.8954 10.2151 19.1754 10.5457C19.4554 10.8762 19.6023 11.3304 19.5816 12.1872C19.5604 13.0649 19.3698 14.2189 19.0958 15.8631C18.8931 17.0793 18.7511 17.9228 18.5629 18.5551C18.3807 19.1672 18.1794 19.4911 17.913 19.7168C17.6465 19.9425 17.294 20.0878 16.6602 20.1669C16.0056 20.2486 15.1503 20.25 13.9172 20.25H11C9.56458 20.25 8.56347 20.2484 7.80812 20.1469C7.07434 20.0482 6.68577 19.8678 6.40901 19.591C6.13225 19.3142 5.9518 18.9257 5.85315 18.1919C5.75159 17.4365 5.75 16.4354 5.75 15Z" stroke="#1B1B1B" stroke-width="1.5"/>
<path d="M5.75 14.5V8C5.75 6.89543 4.85457 6 3.75 6H2.5" stroke="#1B1B1B" stroke-width="1.5" stroke-linecap="round"/>
<circle cx="20.5" cy="6.5" r="6.5" fill="#37AF59"/>
<path d="M22.4688 8.25V9H18.6562V8.35547L20.5078 6.33594C20.7109 6.10677 20.8711 5.90885 20.9883 5.74219C21.1055 5.57552 21.1875 5.42578 21.2344 5.29297C21.2839 5.15755 21.3086 5.02604 21.3086 4.89844C21.3086 4.71875 21.2747 4.5612 21.207 4.42578C21.1419 4.28776 21.0456 4.17969 20.918 4.10156C20.7904 4.02083 20.6354 3.98047 20.4531 3.98047C20.2422 3.98047 20.0651 4.02604 19.9219 4.11719C19.7786 4.20833 19.6706 4.33464 19.5977 4.49609C19.5247 4.65495 19.4883 4.83724 19.4883 5.04297H18.5469C18.5469 4.71224 18.6224 4.41016 18.7734 4.13672C18.9245 3.86068 19.1432 3.64193 19.4297 3.48047C19.7161 3.31641 20.0612 3.23438 20.4648 3.23438C20.8451 3.23438 21.168 3.29818 21.4336 3.42578C21.6992 3.55339 21.901 3.73438 22.0391 3.96875C22.1797 4.20312 22.25 4.48047 22.25 4.80078C22.25 4.97786 22.2214 5.15365 22.1641 5.32812C22.1068 5.5026 22.0247 5.67708 21.918 5.85156C21.8138 6.02344 21.6901 6.19661 21.5469 6.37109C21.4036 6.54297 21.2461 6.71745 21.0742 6.89453L19.8438 8.25H22.4688Z" fill="#F5F5F5"/>
</svg>
