<svg width="22" height="22" viewBox="0 0 22 22" fill="none" xmlns="http://www.w3.org/2000/svg">
<path d="M19.8687 8.28438C19.3856 7.14078 18.6852 6.10179 17.8062 5.225C16.9295 4.34609 15.8905 3.64565 14.7469 3.1625C13.5588 2.65977 12.2998 2.40625 11 2.40625C9.7002 2.40625 8.44121 2.65977 7.25313 3.1625C6.10953 3.64565 5.07054 4.34609 4.19375 5.225C3.31484 6.10179 2.6144 7.14078 2.13125 8.28438C1.62852 9.47246 1.375 10.7314 1.375 12.0312C1.375 14.8822 2.62754 17.5678 4.81035 19.4025L4.84688 19.4326C4.97148 19.5357 5.12832 19.5938 5.28945 19.5938H16.7127C16.8738 19.5938 17.0307 19.5357 17.1553 19.4326L17.1918 19.4025C19.3725 17.5678 20.625 14.8822 20.625 12.0312C20.625 10.7314 20.3693 9.47246 19.8687 8.28438ZM10.3555 4.98438C10.3555 4.88984 10.4328 4.8125 10.5273 4.8125H11.4727C11.5672 4.8125 11.6445 4.88984 11.6445 4.98438V6.70312C11.6445 6.79766 11.5672 6.875 11.4727 6.875H10.5273C10.4328 6.875 10.3555 6.79766 10.3555 6.70312V4.98438ZM5.80078 12.5039C5.80078 12.5984 5.72344 12.6758 5.62891 12.6758H3.91016C3.81562 12.6758 3.73828 12.5984 3.73828 12.5039V11.5586C3.73828 11.4641 3.81562 11.3867 3.91016 11.3867H5.62891C5.72344 11.3867 5.80078 11.4641 5.80078 11.5586V12.5039ZM7.74941 8.11035L7.08125 8.77852C7.04895 8.8105 7.00532 8.82845 6.95986 8.82845C6.9144 8.82845 6.87078 8.8105 6.83848 8.77852L5.62246 7.5625C5.59047 7.5302 5.57253 7.48657 5.57253 7.44111C5.57253 7.39565 5.59047 7.35203 5.62246 7.31973L6.29062 6.65156C6.35723 6.58496 6.4668 6.58496 6.5334 6.65156L7.74941 7.86758C7.81602 7.93418 7.81602 8.04375 7.74941 8.11035ZM14.0035 9.90645L12.1881 11.7219C12.2955 12.1236 12.1924 12.5684 11.8766 12.8842C11.7649 12.996 11.6323 13.0848 11.4863 13.1453C11.3403 13.2059 11.1838 13.2371 11.0258 13.2371C10.8677 13.2371 10.7112 13.2059 10.5653 13.1453C10.4193 13.0848 10.2867 12.996 10.175 12.8842C10.0631 12.7725 9.97439 12.6399 9.91384 12.4939C9.85329 12.3479 9.82212 12.1914 9.82212 12.0334C9.82212 11.8754 9.85329 11.7189 9.91384 11.5729C9.97439 11.4269 10.0631 11.2943 10.175 11.1826C10.3242 11.033 10.5102 10.9254 10.7143 10.8707C10.9184 10.816 11.1333 10.8161 11.3373 10.8711L13.1527 9.05566C13.2193 8.98906 13.3289 8.98906 13.3955 9.05566L14.0035 9.66367C14.0701 9.73027 14.0701 9.8377 14.0035 9.90645ZM14.9273 8.78066L14.2592 8.1125C14.2272 8.0802 14.2092 8.03657 14.2092 7.99111C14.2092 7.94565 14.2272 7.90203 14.2592 7.86973L15.4752 6.65371C15.5418 6.58711 15.6514 6.58711 15.718 6.65371L16.3861 7.32187C16.4527 7.38848 16.4527 7.49805 16.3861 7.56465L15.1701 8.78066C15.1378 8.81265 15.0942 8.83059 15.0487 8.83059C15.0033 8.83059 14.9596 8.81265 14.9273 8.78066ZM18.1758 12.5039C18.1758 12.5984 18.0984 12.6758 18.0039 12.6758H16.2852C16.1906 12.6758 16.1133 12.5984 16.1133 12.5039V11.5586C16.1133 11.4641 16.1906 11.3867 16.2852 11.3867H18.0039C18.0984 11.3867 18.1758 11.4641 18.1758 11.5586V12.5039Z" fill="#1B1B1B"/>
</svg>
