<svg width="23" height="24" viewBox="0 0 23 24" fill="none" xmlns="http://www.w3.org/2000/svg">
<path fill-rule="evenodd" clip-rule="evenodd" d="M11.2877 23.6668C9.70686 23.6668 8.16569 23.6493 6.64086 23.6178C4.69019 23.5793 3.34036 22.3146 3.11986 20.3173C2.75236 17.004 2.12353 9.1943 2.11769 9.11613C2.07803 8.6343 2.43736 8.21197 2.91919 8.17347C3.39403 8.16063 3.82336 8.4943 3.86186 8.97497C3.86769 9.0543 4.49536 16.8371 4.85936 20.1248C4.98419 21.26 5.59669 21.8456 6.67703 21.8678C9.59369 21.9296 12.5699 21.9331 15.7782 21.8748C16.9262 21.8526 17.5469 21.2786 17.6752 20.1166C18.0369 16.857 18.6669 9.0543 18.6739 8.97497C18.7124 8.4943 19.1382 8.1583 19.6154 8.17347C20.0972 8.21313 20.4565 8.6343 20.418 9.11613C20.411 9.19547 19.7787 17.025 19.4147 20.3091C19.1884 22.3473 17.842 23.5875 15.8097 23.6248C14.2545 23.6516 12.7542 23.6668 11.2877 23.6668" fill="white"/>
<path fill-rule="evenodd" clip-rule="evenodd" d="M21.1593 6.15411H1.375C0.892 6.15411 0.5 5.76211 0.5 5.27911C0.5 4.79611 0.892 4.40411 1.375 4.40411H21.1593C21.6423 4.40411 22.0343 4.79611 22.0343 5.27911C22.0343 5.76211 21.6423 6.15411 21.1593 6.15411" fill="white"/>
<path fill-rule="evenodd" clip-rule="evenodd" d="M17.3471 6.15381C16.0195 6.15381 14.8668 5.20765 14.6055 3.90565L14.322 2.48698C14.2625 2.27115 14.0163 2.08331 13.7363 2.08331H8.7978C8.5178 2.08331 8.27163 2.27115 8.20047 2.54065L7.92863 3.90565C7.66847 5.20765 6.51463 6.15381 5.18697 6.15381C4.70397 6.15381 4.31197 5.76181 4.31197 5.27881C4.31197 4.79581 4.70397 4.40381 5.18697 4.40381C5.68397 4.40381 6.11563 4.04915 6.21363 3.56148L6.49713 2.14281C6.7853 1.05548 7.7268 0.333313 8.7978 0.333313H13.7363C14.8073 0.333313 15.7488 1.05548 16.0253 2.09031L16.3216 3.56148C16.4185 4.04915 16.8501 4.40381 17.3471 4.40381C17.8301 4.40381 18.2221 4.79581 18.2221 5.27881C18.2221 5.76181 17.8301 6.15381 17.3471 6.15381" fill="white"/>
</svg>
