<svg width="14" height="12" viewBox="0 0 14 12" fill="none" xmlns="http://www.w3.org/2000/svg">
<path opacity="0.4" d="M11.6663 0.666748H2.33301C1.80257 0.666748 1.29387 0.877462 0.918794 1.25253C0.543722 1.62761 0.333008 2.13632 0.333008 2.66675V9.33342C0.333008 9.86385 0.543722 10.3726 0.918794 10.7476C1.29387 11.1227 1.80257 11.3334 2.33301 11.3334H11.6663C12.1968 11.3334 12.7055 11.1227 13.0806 10.7476C13.4556 10.3726 13.6663 9.86385 13.6663 9.33342V2.66675C13.6663 2.13632 13.4556 1.62761 13.0806 1.25253C12.7055 0.877462 12.1968 0.666748 11.6663 0.666748ZM11.2197 2.00008L6.99967 5.16675L2.77967 2.00008H11.2197ZM11.6663 10.0001H2.33301C2.1562 10.0001 1.98663 9.92984 1.8616 9.80482C1.73658 9.6798 1.66634 9.51023 1.66634 9.33342V2.83341L6.59967 6.53341C6.71507 6.61996 6.85543 6.66675 6.99967 6.66675C7.14392 6.66675 7.28428 6.61996 7.39967 6.53341L12.333 2.83341V9.33342C12.333 9.51023 12.2628 9.6798 12.1377 9.80482C12.0127 9.92984 11.8432 10.0001 11.6663 10.0001Z" fill="#1B1B1B"/>
</svg>
