<svg width="11" height="19" viewBox="0 0 11 19" fill="none" xmlns="http://www.w3.org/2000/svg">
<path d="M11 1.50005C11 1.36745 10.9473 1.24027 10.8536 1.1465C10.7598 1.05273 10.6326 1.00005 10.5 1.00005H8C6.74112 0.937344 5.5086 1.37544 4.57172 2.21863C3.63485 3.06182 3.06978 4.24155 3 5.50005V8.20005H0.5C0.367392 8.20005 0.240215 8.25273 0.146447 8.3465C0.0526785 8.44027 0 8.56744 0 8.70005V11.3001C0 11.4327 0.0526785 11.5598 0.146447 11.6536C0.240215 11.7474 0.367392 11.8001 0.5 11.8001H3V18.5001C3 18.6327 3.05268 18.7598 3.14645 18.8536C3.24021 18.9474 3.36739 19.0001 3.5 19.0001H6.5C6.63261 19.0001 6.75979 18.9474 6.85355 18.8536C6.94732 18.7598 7 18.6327 7 18.5001V11.8001H9.62C9.73119 11.8017 9.83974 11.7661 9.92848 11.6991C10.0172 11.6321 10.0811 11.5374 10.11 11.4301L10.83 8.83005C10.8499 8.75618 10.8526 8.67872 10.8378 8.60364C10.8231 8.52857 10.7913 8.45788 10.7449 8.39702C10.6985 8.33617 10.6388 8.28676 10.5704 8.25261C10.5019 8.21846 10.4265 8.20048 10.35 8.20005H7V5.50005C7.02487 5.25253 7.14111 5.02317 7.32602 4.85675C7.51093 4.69033 7.75123 4.59881 8 4.60005H10.5C10.6326 4.60005 10.7598 4.54737 10.8536 4.45361C10.9473 4.35984 11 4.23266 11 4.10005V1.50005Z" fill="#F5F5F5"/>
</svg>
