<svg width="21" height="21" viewBox="0 0 21 21" fill="none" xmlns="http://www.w3.org/2000/svg">
<path d="M6.25 1H3.25C2.00736 1 1 2.00736 1 3.25V6.25C1 7.49264 2.00736 8.5 3.25 8.5H6.25C7.49264 8.5 8.5 7.49264 8.5 6.25V3.25C8.5 2.00736 7.49264 1 6.25 1Z" stroke="#1B1B1B" stroke-width="1.5"/>
<path d="M6.25 12H3.25C2.00736 12 1 13.0074 1 14.25V17.25C1 18.4926 2.00736 19.5 3.25 19.5H6.25C7.49264 19.5 8.5 18.4926 8.5 17.25V14.25C8.5 13.0074 7.49264 12 6.25 12Z" stroke="#1B1B1B" stroke-width="1.5"/>
<path d="M20 14H12" stroke="#1B1B1B" stroke-width="1.5" stroke-linecap="round"/>
<path d="M20 3H12" stroke="#1B1B1B" stroke-width="1.5" stroke-linecap="round"/>
<path d="M20 18H12" stroke="#1B1B1B" stroke-width="1.5" stroke-linecap="round"/>
<path d="M20 7H12" stroke="#1B1B1B" stroke-width="1.5" stroke-linecap="round"/>
</svg>
