<svg width="24" height="24" viewBox="0 0 24 24" fill="none" xmlns="http://www.w3.org/2000/svg">
<path d="M2 9.99979L10.7506 2.9993C11.481 2.41495 12.519 2.41495 13.2494 2.9993L22 9.99979" stroke="#F5F5F5" stroke-width="1.5" stroke-linecap="round" stroke-linejoin="round"/>
<path d="M9.47763 4.04964L5.47763 7.29964C4.75138 7.88972 4.38825 8.18476 4.19412 8.59261C4 9.00046 4 9.46834 4 10.4041V14.0002C4 17.7714 4 19.6571 5.17157 20.8286C6.34315 22.0002 8.22876 22.0002 12 22.0002C15.7712 22.0002 17.6569 22.0002 18.8284 20.8286C20 19.6571 20 17.7714 20 14.0002V10.4041C20 9.46834 20 9.00046 19.8059 8.59261C19.6117 8.18476 19.2486 7.88972 18.5224 7.29964L14.5224 4.04964C13.3142 3.06798 12.7101 2.57715 12 2.57715C11.2899 2.57715 10.6858 3.06798 9.47763 4.04964Z" stroke="#F5F5F5" stroke-width="1.5"/>
<path d="M9.75 16.25H14.25" stroke="#F5F5F5" stroke-width="1.5" stroke-linecap="round"/>
</svg>
