<svg width="12" height="14" viewBox="0 0 12 14" fill="none" xmlns="http://www.w3.org/2000/svg">
<path opacity="0.4" d="M6.00033 0.333496C4.16233 0.333496 2.66699 1.82883 2.66699 3.66683V5.66683H2.00033C1.26499 5.66683 0.666992 6.26483 0.666992 7.00016V12.3335C0.666992 13.0688 1.26499 13.6668 2.00033 13.6668H10.0003C10.7357 13.6668 11.3337 13.0688 11.3337 12.3335V7.00016C11.3337 6.26483 10.7357 5.66683 10.0003 5.66683H9.33366V3.66683C9.33366 1.82883 7.83833 0.333496 6.00033 0.333496ZM10.0003 7.00016L10.0017 12.3335H2.00033V7.00016H10.0003ZM4.00033 5.66683V3.66683C4.00033 2.56416 4.89766 1.66683 6.00033 1.66683C7.10299 1.66683 8.00033 2.56416 8.00033 3.66683V5.66683H4.00033Z" fill="#1B1B1B"/>
</svg>
