<svg width="81" height="93" viewBox="0 0 81 93" fill="none" xmlns="http://www.w3.org/2000/svg">
<path d="M0 54.1659L13.6397 43.7182C13.6397 43.7182 22.8675 26.8688 38.4632 33.242L78.3712 0C78.3712 0 85.8112 15.5509 72.5225 25.985L33.3233 56.5961C33.3233 56.5961 28.0046 50.002 15.4194 47.5066L18.8839 45.7052C18.8839 45.7052 24.5971 44.404 23.5222 41.4478C23.5222 41.4478 20.6067 40.2401 18.1696 44.1167L0 54.1659Z" fill="black"/>
<path d="M62.0741 69.6897L50.458 77.6854C52.3909 81.9252 54.0784 86.7844 55.4081 92.3336C57.5158 91.317 65.1414 86.4293 62.0741 69.6897Z" fill="black"/>
<path d="M71.9891 34.4729L38.8135 60.565C41.9256 63.6676 44.9943 67.5577 47.7526 72.3857L67.0268 57.6603C74.6512 52.347 71.9891 34.4729 71.9891 34.4729Z" fill="black"/>
</svg>
