<svg width="22" height="20" viewBox="0 0 22 20" fill="none" xmlns="http://www.w3.org/2000/svg">
<path d="M3.66667 0C4.1059 0 4.48403 0.319922 4.56806 0.762109L4.62535 1.25H20.6938C21.4691 1.25 22.0878 2.04102 21.8701 2.83828L19.8076 10.3398C19.6587 10.8789 19.1774 11.25 18.6313 11.25H6.51979L6.87118 13.125H18.6389C19.1469 13.125 19.5556 13.543 19.5556 14.0625C19.5556 14.582 19.1469 15 18.6389 15H6.07674C5.67188 15 5.29375 14.6797 5.20972 14.2383L2.90813 1.875H0.916667C0.41059 1.875 0 1.45508 0 0.9375C0 0.419922 0.41059 0 0.916667 0H3.66667ZM10.3889 7.03125H12.0694V8.75C12.0694 9.17969 12.3788 9.53125 12.8333 9.53125C13.2535 9.53125 13.5972 9.17969 13.5972 8.75V7.03125H15.2778C15.6979 7.03125 16.0417 6.67969 16.0417 6.25C16.0417 5.78516 15.6979 5.46875 15.2778 5.46875H13.5972V3.75C13.5972 3.31836 13.2535 2.96875 12.8333 2.96875C12.3788 2.96875 12.0694 3.31836 12.0694 3.75V5.46875H10.3889C9.93438 5.46875 9.625 5.78516 9.625 6.25C9.625 6.67969 9.93438 7.03125 10.3889 7.03125ZM4.88889 18.125C4.88889 17.0898 5.71007 16.25 6.72222 16.25C7.73438 16.25 8.55556 17.0898 8.55556 18.125C8.55556 19.1602 7.73438 20 6.72222 20C5.71007 20 4.88889 19.1602 4.88889 18.125ZM19.5556 18.125C19.5556 19.1602 18.7344 20 17.7222 20C16.7101 20 15.8889 19.1602 15.8889 18.125C15.8889 17.0898 16.7101 16.25 17.7222 16.25C18.7344 16.25 19.5556 17.0898 19.5556 18.125Z" fill="#1B1B1B"/>
</svg>
