<svg width="22" height="22" viewBox="0 0 22 22" fill="none" xmlns="http://www.w3.org/2000/svg">
<path d="M20.075 17.1905L19.8672 17.0072C19.2778 16.482 18.7618 15.8797 18.3333 15.2167C17.8654 14.3016 17.5849 13.3022 17.5083 12.2772V9.25833C17.5124 7.64842 16.9284 6.09245 15.8661 4.88276C14.8038 3.67306 13.3364 2.89291 11.7394 2.68888V1.90055C11.7394 1.68418 11.6535 1.47667 11.5005 1.32367C11.3475 1.17067 11.14 1.08472 10.9236 1.08472C10.7072 1.08472 10.4997 1.17067 10.3467 1.32367C10.1937 1.47667 10.1078 1.68418 10.1078 1.90055V2.70111C8.52516 2.91984 7.07543 3.70471 6.0271 4.91034C4.97878 6.11597 4.40289 7.66067 4.40611 9.25833V12.2772C4.32958 13.3022 4.04909 14.3016 3.58111 15.2167C3.15999 15.8781 2.65234 16.4803 2.07167 17.0072L1.86389 17.1905V18.9139H20.075V17.1905Z" fill="#1B1B1B"/>
<path d="M9.36223 19.5555C9.41582 19.9429 9.60777 20.2978 9.90263 20.5547C10.1975 20.8116 10.5753 20.9531 10.9664 20.9531C11.3575 20.9531 11.7353 20.8116 12.0302 20.5547C12.325 20.2978 12.517 19.9429 12.5706 19.5555H9.36223Z" fill="#1B1B1B"/>
</svg>
