<svg width="16" height="12" viewBox="0 0 16 12" fill="none" xmlns="http://www.w3.org/2000/svg">
<path d="M14.1717 5.30792C14.4877 5.72125 14.4877 6.27925 14.1717 6.69192C13.1763 7.99125 10.7883 10.6666 8.00033 10.6666C5.21233 10.6666 2.82433 7.99125 1.829 6.69192C1.67526 6.49401 1.5918 6.25053 1.5918 5.99992C1.5918 5.74931 1.67526 5.50583 1.829 5.30792C2.82433 4.00859 5.21233 1.33325 8.00033 1.33325C10.7883 1.33325 13.1763 4.00859 14.1717 5.30792V5.30792Z" stroke="#1B1B1B" stroke-width="1.25" stroke-linecap="round" stroke-linejoin="round"/>
<path d="M8 8C9.10457 8 10 7.10457 10 6C10 4.89543 9.10457 4 8 4C6.89543 4 6 4.89543 6 6C6 7.10457 6.89543 8 8 8Z" stroke="#1B1B1B" stroke-width="1.25" stroke-linecap="round" stroke-linejoin="round"/>
</svg>
