<svg width="18" height="18" viewBox="0 0 18 18" fill="none" xmlns="http://www.w3.org/2000/svg">
<path d="M7.91567 4.68002L5.37842 1.75127C5.08592 1.41377 4.54967 1.41527 4.20992 1.75577L2.12342 3.84602C1.50242 4.46777 1.32467 5.39102 1.68392 6.13127C3.83014 10.575 7.41396 14.1638 11.8547 16.3163C12.5942 16.6755 13.5167 16.4978 14.1377 15.876L16.2437 13.7663C16.5849 13.425 16.5857 12.8858 16.2452 12.5933L13.3052 10.0695C12.9977 9.80552 12.5199 9.84002 12.2117 10.149L11.1887 11.1735C11.1363 11.2284 11.0674 11.2646 10.9924 11.2765C10.9175 11.2884 10.8407 11.2754 10.7739 11.2395C9.10176 10.2766 7.71467 8.88769 6.75392 7.21427C6.71794 7.14734 6.70492 7.07044 6.71684 6.99539C6.72876 6.92034 6.76497 6.85127 6.81992 6.79877L7.83992 5.77802C8.14892 5.46752 8.18267 4.98752 7.91567 4.67927V4.68002Z" stroke="#F5F5F5" stroke-width="1.5" stroke-linecap="round" stroke-linejoin="round"/>
</svg>
