<svg width="16" height="16" viewBox="0 0 16 16" fill="none" xmlns="http://www.w3.org/2000/svg">
<path opacity="0.4" d="M7.03583 4.1601L4.7805 1.55677C4.5205 1.25677 4.04383 1.2581 3.74183 1.56077L1.88716 3.41877C1.33516 3.97143 1.17716 4.7921 1.4965 5.4501C3.40424 9.40008 6.58986 12.5902 10.5372 14.5034C11.1945 14.8228 12.0145 14.6648 12.5665 14.1121L14.4385 12.2368C14.7418 11.9334 14.7425 11.4541 14.4398 11.1941L11.8265 8.95077C11.5532 8.7161 11.1285 8.74677 10.8545 9.02143L9.94516 9.9321C9.89861 9.98089 9.83733 10.0131 9.77073 10.0237C9.70413 10.0343 9.63589 10.0227 9.5765 9.99077C8.09013 9.13483 6.85716 7.90025 6.00316 6.41277C5.97118 6.35327 5.9596 6.28492 5.9702 6.21821C5.98079 6.15149 6.01298 6.0901 6.06183 6.04343L6.9685 5.1361C7.24316 4.8601 7.27316 4.43343 7.03583 4.15943V4.1601Z" stroke="black" stroke-width="1.25" stroke-linecap="round" stroke-linejoin="round"/>
</svg>
