<svg width="136" height="24" viewBox="0 0 136 24" fill="none" xmlns="http://www.w3.org/2000/svg">
<path d="M11.1169 3.66283C11.4929 2.95492 12.5073 2.95492 12.8833 3.66283L14.8393 7.34568C14.9838 7.61783 15.2458 7.80813 15.5493 7.8615L19.6563 8.58374C20.4458 8.72256 20.7592 9.68727 20.2021 10.2636L17.304 13.262C17.0898 13.4835 16.9898 13.7915 17.0328 14.0966L17.6151 18.2258C17.727 19.0195 16.9063 19.6157 16.1861 19.264L12.4389 17.4343C12.162 17.299 11.8382 17.299 11.5613 17.4343L7.81412 19.264C7.09384 19.6157 6.27321 19.0195 6.38513 18.2258L6.96739 14.0966C7.01042 13.7915 6.91037 13.4835 6.69621 13.262L3.79806 10.2636C3.24098 9.68727 3.55444 8.72256 4.34389 8.58374L8.45093 7.8615C8.75442 7.80813 9.01636 7.61782 9.1609 7.34568L11.1169 3.66283Z" fill="#FFB800" stroke="#FFB800"/>
<path d="M39.1169 3.66283C39.4929 2.95492 40.5073 2.95492 40.8833 3.66283L42.8393 7.34568C42.9838 7.61783 43.2458 7.80813 43.5493 7.8615L47.6563 8.58374C48.4458 8.72256 48.7592 9.68727 48.2021 10.2636L45.304 13.262C45.0898 13.4835 44.9898 13.7915 45.0328 14.0966L45.6151 18.2258C45.727 19.0195 44.9063 19.6157 44.1861 19.264L40.4389 17.4343C40.162 17.299 39.8382 17.299 39.5613 17.4343L35.8141 19.264C35.0938 19.6157 34.2732 19.0195 34.3851 18.2258L34.9674 14.0966C35.0104 13.7915 34.9104 13.4835 34.6962 13.262L31.7981 10.2636C31.241 9.68727 31.5544 8.72256 32.3439 8.58374L36.4509 7.8615C36.7544 7.80813 37.0164 7.61782 37.1609 7.34568L39.1169 3.66283Z" fill="#FFB800" stroke="#FFB800"/>
<path d="M67.1169 3.66283C67.4929 2.95492 68.5073 2.95492 68.8833 3.66283L70.8393 7.34568C70.9838 7.61783 71.2458 7.80813 71.5493 7.8615L75.6563 8.58374C76.4458 8.72256 76.7592 9.68727 76.2021 10.2636L73.304 13.262C73.0898 13.4835 72.9898 13.7915 73.0328 14.0966L73.6151 18.2258C73.727 19.0195 72.9063 19.6157 72.1861 19.264L68.4389 17.4343C68.162 17.299 67.8382 17.299 67.5613 17.4343L63.8141 19.264C63.0938 19.6157 62.2732 19.0195 62.3851 18.2258L62.9674 14.0966C63.0104 13.7915 62.9104 13.4835 62.6962 13.262L59.7981 10.2636C59.241 9.68727 59.5544 8.72256 60.3439 8.58374L64.4509 7.8615C64.7544 7.80813 65.0164 7.61782 65.1609 7.34568L67.1169 3.66283Z" fill="#FFB800" stroke="#FFB800"/>
<path d="M95.1169 3.66283C95.4929 2.95492 96.5073 2.95492 96.8833 3.66283L98.8393 7.34568C98.9838 7.61783 99.2458 7.80813 99.5493 7.8615L103.656 8.58374C104.446 8.72256 104.759 9.68727 104.202 10.2636L101.304 13.262C101.09 13.4835 100.99 13.7915 101.033 14.0966L101.615 18.2258C101.727 19.0195 100.906 19.6157 100.186 19.264L96.4389 17.4343C96.162 17.299 95.8382 17.299 95.5613 17.4343L91.8141 19.264C91.0938 19.6157 90.2732 19.0195 90.3851 18.2258L90.9674 14.0966C91.0104 13.7915 90.9104 13.4835 90.6962 13.262L87.7981 10.2636C87.241 9.68727 87.5544 8.72256 88.3439 8.58374L92.4509 7.8615C92.7544 7.80813 93.0164 7.61782 93.1609 7.34568L95.1169 3.66283Z" fill="#FFB800" stroke="#FFB800"/>
<path d="M123.117 3.66283C123.493 2.95492 124.507 2.95492 124.883 3.66283L126.839 7.34568C126.984 7.61783 127.246 7.80813 127.549 7.8615L131.656 8.58374C132.446 8.72256 132.759 9.68727 132.202 10.2636L129.304 13.262C129.09 13.4835 128.99 13.7915 129.033 14.0966L129.615 18.2258C129.727 19.0195 128.906 19.6157 128.186 19.264L124.439 17.4343C124.162 17.299 123.838 17.299 123.561 17.4343L119.814 19.264C119.094 19.6157 118.273 19.0195 118.385 18.2258L118.967 14.0966C119.01 13.7915 118.91 13.4835 118.696 13.262L115.798 10.2636C115.241 9.68727 115.554 8.72256 116.344 8.58374L120.451 7.8615C120.754 7.80813 121.016 7.61782 121.161 7.34568L123.117 3.66283Z" fill="#ECEAEA" stroke="#ECEAEA"/>
</svg>
