<svg width="22" height="22" viewBox="0 0 22 22" fill="none" xmlns="http://www.w3.org/2000/svg">
<path d="M20.2812 3.09375H1.71875C1.44534 3.09407 1.18323 3.20282 0.989898 3.39615C0.79657 3.58948 0.687818 3.85159 0.6875 4.125V17.875C0.687818 18.1484 0.79657 18.4105 0.989898 18.6039C1.18323 18.7972 1.44534 18.9059 1.71875 18.9062H20.2812C20.5547 18.9059 20.8168 18.7972 21.0101 18.6039C21.2034 18.4105 21.3122 18.1484 21.3125 17.875V4.125C21.3122 3.85159 21.2034 3.58948 21.0101 3.39615C20.8168 3.20282 20.5547 3.09407 20.2812 3.09375ZM19.9375 4.46875V7.21875H2.0625V4.46875H19.9375ZM2.0625 17.5312V9.96875H19.9375V17.5312H2.0625Z" fill="#1B1B1B"/>
<path d="M3.78125 13.4062H6.53125V14.7812H3.78125V13.4062ZM7.90625 13.4062H10.6562V14.7812H7.90625V13.4062Z" fill="#1B1B1B"/>
</svg>
