<svg width="18" height="18" viewBox="0 0 18 18" fill="none" xmlns="http://www.w3.org/2000/svg">
<path d="M4.19961 0.600098C3.24483 0.600098 2.32916 0.979382 1.65402 1.65451C0.978894 2.32964 0.599609 3.24532 0.599609 4.2001V6.0001C0.599609 6.15923 0.662824 6.31184 0.775345 6.42436C0.887867 6.53688 1.04048 6.6001 1.19961 6.6001C1.35874 6.6001 1.51135 6.53688 1.62387 6.42436C1.7364 6.31184 1.79961 6.15923 1.79961 6.0001V4.2001C1.79961 3.56358 2.05247 2.95313 2.50255 2.50304C2.95264 2.05295 3.56309 1.8001 4.19961 1.8001H5.99961C6.15874 1.8001 6.31135 1.73688 6.42387 1.62436C6.53639 1.51184 6.59961 1.35923 6.59961 1.2001C6.59961 1.04097 6.53639 0.888356 6.42387 0.775834C6.31135 0.663312 6.15874 0.600098 5.99961 0.600098H4.19961ZM11.9996 0.600098C11.8405 0.600098 11.6879 0.663312 11.5753 0.775834C11.4628 0.888356 11.3996 1.04097 11.3996 1.2001C11.3996 1.35923 11.4628 1.51184 11.5753 1.62436C11.6879 1.73688 11.8405 1.8001 11.9996 1.8001H13.7996C14.4361 1.8001 15.0466 2.05295 15.4967 2.50304C15.9468 2.95313 16.1996 3.56358 16.1996 4.2001V6.0001C16.1996 6.15923 16.2628 6.31184 16.3753 6.42436C16.4879 6.53688 16.6405 6.6001 16.7996 6.6001C16.9587 6.6001 17.1114 6.53688 17.2239 6.42436C17.3364 6.31184 17.3996 6.15923 17.3996 6.0001V4.2001C17.3996 3.24532 17.0203 2.32964 16.3452 1.65451C15.6701 0.979382 14.7544 0.600098 13.7996 0.600098H11.9996ZM1.79961 12.0001C1.79961 11.841 1.7364 11.6884 1.62387 11.5758C1.51135 11.4633 1.35874 11.4001 1.19961 11.4001C1.04048 11.4001 0.887867 11.4633 0.775345 11.5758C0.662824 11.6884 0.599609 11.841 0.599609 12.0001V13.8001C0.599609 14.7549 0.978894 15.6706 1.65402 16.3457C2.32916 17.0208 3.24483 17.4001 4.19961 17.4001H5.99961C6.15874 17.4001 6.31135 17.3369 6.42387 17.2244C6.53639 17.1118 6.59961 16.9592 6.59961 16.8001C6.59961 16.641 6.53639 16.4884 6.42387 16.3758C6.31135 16.2633 6.15874 16.2001 5.99961 16.2001H4.19961C3.56309 16.2001 2.95264 15.9472 2.50255 15.4972C2.05247 15.0471 1.79961 14.4366 1.79961 13.8001V12.0001ZM17.3996 12.0001C17.3996 11.841 17.3364 11.6884 17.2239 11.5758C17.1114 11.4633 16.9587 11.4001 16.7996 11.4001C16.6405 11.4001 16.4879 11.4633 16.3753 11.5758C16.2628 11.6884 16.1996 11.841 16.1996 12.0001V13.8001C16.1996 14.4366 15.9468 15.0471 15.4967 15.4972C15.0466 15.9472 14.4361 16.2001 13.7996 16.2001H11.9996C11.8405 16.2001 11.6879 16.2633 11.5753 16.3758C11.4628 16.4884 11.3996 16.641 11.3996 16.8001C11.3996 16.9592 11.4628 17.1118 11.5753 17.2244C11.6879 17.3369 11.8405 17.4001 11.9996 17.4001H13.7996C14.7544 17.4001 15.6701 17.0208 16.3452 16.3457C17.0203 15.6706 17.3996 14.7549 17.3996 13.8001V12.0001ZM4.79961 8.4001C4.64048 8.4001 4.48787 8.46331 4.37535 8.57583C4.26282 8.68835 4.19961 8.84097 4.19961 9.0001C4.19961 9.15923 4.26282 9.31184 4.37535 9.42436C4.48787 9.53688 4.64048 9.6001 4.79961 9.6001H13.1996C13.3587 9.6001 13.5114 9.53688 13.6239 9.42436C13.7364 9.31184 13.7996 9.15923 13.7996 9.0001C13.7996 8.84097 13.7364 8.68835 13.6239 8.57583C13.5114 8.46331 13.3587 8.4001 13.1996 8.4001H4.79961Z" fill="#1B1B1B"/>
</svg>
