<svg width="40" height="40" viewBox="0 0 40 40" fill="none" xmlns="http://www.w3.org/2000/svg">
<path d="M18.5278 6.10474C19.1545 4.92489 20.8451 4.92489 21.4718 6.10474L24.7318 12.2428C24.9727 12.6964 25.4093 13.0136 25.9151 13.1025L32.7602 14.3063C34.076 14.5376 34.5983 16.1455 33.6698 17.106L28.8396 22.1033C28.4827 22.4725 28.316 22.9858 28.3876 23.4944L29.3582 30.3763C29.5446 31.6992 28.1768 32.6929 26.9765 32.1067L20.7312 29.0572C20.2697 28.8317 19.73 28.8317 19.2685 29.0572L13.0232 32.1067C11.8227 32.6929 10.455 31.6992 10.6416 30.3763L11.612 23.4944C11.6837 22.9858 11.517 22.4725 11.16 22.1033L6.32977 17.106C5.4013 16.1455 5.92373 14.5376 7.23948 14.3063L14.0846 13.1025C14.5904 13.0136 15.0269 12.6964 15.2678 12.2428L18.5278 6.10474Z" fill="#FFB800" stroke="#FFB800"/>
</svg>
