<svg width="383" height="55" viewBox="0 0 383 55" fill="none" xmlns="http://www.w3.org/2000/svg">
<line opacity="0.8" x1="37" y1="11.5" x2="175" y2="11.5" stroke="#727272" stroke-dasharray="6 6"/>
<line opacity="0.8" x1="204" y1="11.5" x2="346" y2="11.5" stroke="#727272" stroke-dasharray="6 6"/>
<path d="M1.41477 52H0.306818L3.51136 43.2727H4.60227L7.80682 52H6.69886L4.09091 44.6534H4.02273L1.41477 52ZM1.82386 48.5909H6.28977V49.5284H1.82386V48.5909ZM11.5014 52.1364C10.956 52.1364 10.4744 51.9986 10.0568 51.723C9.6392 51.4446 9.3125 51.0526 9.0767 50.5469C8.84091 50.0384 8.72301 49.4375 8.72301 48.7443C8.72301 48.0568 8.84091 47.4602 9.0767 46.9545C9.3125 46.4489 9.64063 46.0582 10.0611 45.7827C10.4815 45.5071 10.9673 45.3693 11.5185 45.3693C11.9446 45.3693 12.2813 45.4403 12.5284 45.5824C12.7784 45.7216 12.9688 45.8807 13.0994 46.0597C13.233 46.2358 13.3366 46.3807 13.4105 46.4943H13.4957V43.2727H14.5014V52H13.5298V50.9943H13.4105C13.3366 51.1136 13.2315 51.2642 13.0952 51.446C12.9588 51.625 12.7642 51.7855 12.5114 51.9276C12.2585 52.0668 11.9219 52.1364 11.5014 52.1364ZM11.6378 51.233C12.0412 51.233 12.3821 51.1278 12.6605 50.9176C12.9389 50.7045 13.1506 50.4105 13.2955 50.0355C13.4403 49.6577 13.5128 49.2216 13.5128 48.7273C13.5128 48.2386 13.4418 47.8111 13.2997 47.4446C13.1577 47.0753 12.9474 46.7884 12.669 46.5838C12.3906 46.3764 12.0469 46.2727 11.6378 46.2727C11.2116 46.2727 10.8565 46.3821 10.5724 46.6009C10.2912 46.8168 10.0795 47.1108 9.9375 47.483C9.7983 47.8523 9.72869 48.267 9.72869 48.7273C9.72869 49.1932 9.79972 49.6165 9.94176 49.9972C10.0866 50.375 10.2997 50.6761 10.581 50.9006C10.8651 51.1222 11.2173 51.233 11.6378 51.233ZM18.9545 52.1364C18.4091 52.1364 17.9276 51.9986 17.5099 51.723C17.0923 51.4446 16.7656 51.0526 16.5298 50.5469C16.294 50.0384 16.1761 49.4375 16.1761 48.7443C16.1761 48.0568 16.294 47.4602 16.5298 46.9545C16.7656 46.4489 17.0938 46.0582 17.5142 45.7827C17.9347 45.5071 18.4205 45.3693 18.9716 45.3693C19.3977 45.3693 19.7344 45.4403 19.9815 45.5824C20.2315 45.7216 20.4219 45.8807 20.5526 46.0597C20.6861 46.2358 20.7898 46.3807 20.8636 46.4943H20.9489V43.2727H21.9545V52H20.983V50.9943H20.8636C20.7898 51.1136 20.6847 51.2642 20.5483 51.446C20.4119 51.625 20.2173 51.7855 19.9645 51.9276C19.7116 52.0668 19.375 52.1364 18.9545 52.1364ZM19.0909 51.233C19.4943 51.233 19.8352 51.1278 20.1136 50.9176C20.392 50.7045 20.6037 50.4105 20.7486 50.0355C20.8935 49.6577 20.9659 49.2216 20.9659 48.7273C20.9659 48.2386 20.8949 47.8111 20.7528 47.4446C20.6108 47.0753 20.4006 46.7884 20.1222 46.5838C19.8438 46.3764 19.5 46.2727 19.0909 46.2727C18.6648 46.2727 18.3097 46.3821 18.0256 46.6009C17.7443 46.8168 17.5327 47.1108 17.3906 47.483C17.2514 47.8523 17.1818 48.267 17.1818 48.7273C17.1818 49.1932 17.2528 49.6165 17.3949 49.9972C17.5398 50.375 17.7528 50.6761 18.0341 50.9006C18.3182 51.1222 18.6705 51.233 19.0909 51.233ZM23.9361 52V45.4545H24.9077V46.4432H24.9759C25.0952 46.1193 25.3111 45.8565 25.6236 45.6548C25.9361 45.4531 26.2884 45.3523 26.6804 45.3523C26.7543 45.3523 26.8466 45.3537 26.9574 45.3565C27.0682 45.3594 27.152 45.3636 27.2088 45.3693V46.392C27.1747 46.3835 27.0966 46.3707 26.9744 46.3537C26.8551 46.3338 26.7287 46.3239 26.5952 46.3239C26.277 46.3239 25.9929 46.3906 25.7429 46.5241C25.4957 46.6548 25.2997 46.8366 25.1548 47.0696C25.0128 47.2997 24.9418 47.5625 24.9418 47.858V52H23.9361ZM30.946 52.1364C30.3153 52.1364 29.7713 51.9972 29.3139 51.7188C28.8594 51.4375 28.5085 51.0455 28.2614 50.5426C28.017 50.0369 27.8949 49.4489 27.8949 48.7784C27.8949 48.108 28.017 47.517 28.2614 47.0057C28.5085 46.4915 28.8523 46.0909 29.2926 45.804C29.7358 45.5142 30.2528 45.3693 30.8438 45.3693C31.1847 45.3693 31.5213 45.4261 31.8537 45.5398C32.1861 45.6534 32.4886 45.8381 32.7614 46.0938C33.0341 46.3466 33.2514 46.6818 33.4134 47.0994C33.5753 47.517 33.6562 48.0312 33.6562 48.642V49.0682H28.6108V48.1989H32.6335C32.6335 47.8295 32.5597 47.5 32.4119 47.2102C32.267 46.9205 32.0597 46.6918 31.7898 46.5241C31.5227 46.3565 31.2074 46.2727 30.8438 46.2727C30.4432 46.2727 30.0966 46.3722 29.804 46.571C29.5142 46.767 29.2912 47.0227 29.1349 47.3381C28.9787 47.6534 28.9006 47.9915 28.9006 48.3523V48.9318C28.9006 49.4261 28.9858 49.8452 29.1562 50.1889C29.3295 50.5298 29.5696 50.7898 29.8764 50.9688C30.1832 51.1449 30.5398 51.233 30.946 51.233C31.2102 51.233 31.4489 51.196 31.6619 51.1222C31.8778 51.0455 32.0639 50.9318 32.2202 50.7812C32.3764 50.6278 32.4972 50.4375 32.5824 50.2102L33.554 50.483C33.4517 50.8125 33.2798 51.1023 33.0384 51.3523C32.7969 51.5994 32.4986 51.7926 32.1435 51.9318C31.7884 52.0682 31.3892 52.1364 30.946 52.1364ZM39.8224 46.9205L38.919 47.1761C38.8622 47.0256 38.7784 46.8793 38.6676 46.7372C38.5597 46.5923 38.4119 46.473 38.2244 46.3793C38.0369 46.2855 37.7969 46.2386 37.5043 46.2386C37.1037 46.2386 36.7699 46.331 36.5028 46.5156C36.2386 46.6974 36.1065 46.929 36.1065 47.2102C36.1065 47.4602 36.1974 47.6577 36.3793 47.8026C36.5611 47.9474 36.8452 48.0682 37.2315 48.1648L38.2031 48.4034C38.7884 48.5455 39.2244 48.7628 39.5114 49.0554C39.7983 49.3452 39.9418 49.7187 39.9418 50.1761C39.9418 50.5511 39.8338 50.8864 39.6179 51.1818C39.4048 51.4773 39.1065 51.7102 38.723 51.8807C38.3395 52.0511 37.8935 52.1364 37.3849 52.1364C36.7173 52.1364 36.1648 51.9915 35.7273 51.7017C35.2898 51.4119 35.0128 50.9886 34.8963 50.4318L35.8509 50.1932C35.9418 50.5455 36.1136 50.8097 36.3665 50.9858C36.6222 51.1619 36.956 51.25 37.3679 51.25C37.8366 51.25 38.2088 51.1506 38.4844 50.9517C38.7628 50.75 38.902 50.5085 38.902 50.2273C38.902 50 38.8224 49.8097 38.6634 49.6562C38.5043 49.5 38.2599 49.3835 37.9304 49.3068L36.8395 49.0511C36.2401 48.9091 35.7997 48.6889 35.5185 48.3906C35.2401 48.0895 35.1009 47.7131 35.1009 47.2614C35.1009 46.892 35.2045 46.5653 35.4119 46.2812C35.6222 45.9972 35.9077 45.7741 36.2685 45.6122C36.6321 45.4503 37.044 45.3693 37.5043 45.3693C38.152 45.3693 38.6605 45.5114 39.0298 45.7955C39.402 46.0795 39.6662 46.4545 39.8224 46.9205ZM46.092 46.9205L45.1886 47.1761C45.1317 47.0256 45.0479 46.8793 44.9371 46.7372C44.8292 46.5923 44.6815 46.473 44.494 46.3793C44.3065 46.2855 44.0664 46.2386 43.7738 46.2386C43.3732 46.2386 43.0394 46.331 42.7724 46.5156C42.5082 46.6974 42.3761 46.929 42.3761 47.2102C42.3761 47.4602 42.467 47.6577 42.6488 47.8026C42.8306 47.9474 43.1147 48.0682 43.5011 48.1648L44.4727 48.4034C45.0579 48.5455 45.494 48.7628 45.7809 49.0554C46.0678 49.3452 46.2113 49.7187 46.2113 50.1761C46.2113 50.5511 46.1033 50.8864 45.8874 51.1818C45.6744 51.4773 45.3761 51.7102 44.9925 51.8807C44.609 52.0511 44.163 52.1364 43.6545 52.1364C42.9869 52.1364 42.4343 51.9915 41.9968 51.7017C41.5593 51.4119 41.2823 50.9886 41.1658 50.4318L42.1204 50.1932C42.2113 50.5455 42.3832 50.8097 42.636 50.9858C42.8917 51.1619 43.2255 51.25 43.6374 51.25C44.1062 51.25 44.4783 51.1506 44.7539 50.9517C45.0323 50.75 45.1715 50.5085 45.1715 50.2273C45.1715 50 45.092 49.8097 44.9329 49.6562C44.7738 49.5 44.5295 49.3835 44.1999 49.3068L43.109 49.0511C42.5096 48.9091 42.0692 48.6889 41.788 48.3906C41.5096 48.0895 41.3704 47.7131 41.3704 47.2614C41.3704 46.892 41.4741 46.5653 41.6815 46.2812C41.8917 45.9972 42.1772 45.7741 42.538 45.6122C42.9016 45.4503 43.3136 45.3693 43.7738 45.3693C44.4215 45.3693 44.93 45.5114 45.2994 45.7955C45.6715 46.0795 45.9357 46.4545 46.092 46.9205Z" fill="#1B1B1B"/>
<circle cx="23" cy="12" r="12" fill="#37AF59"/>
<path d="M18.2 12L21.4 15.2L27.8 8.80005" stroke="#F5F5F5" stroke-width="2" stroke-linecap="round" stroke-linejoin="round"/>
<path opacity="0.8" d="M166.057 52V43.2727H169.006C169.69 43.2727 170.25 43.3963 170.685 43.6435C171.122 43.8878 171.446 44.2188 171.656 44.6364C171.866 45.054 171.972 45.5199 171.972 46.0341C171.972 46.5483 171.866 47.0156 171.656 47.4361C171.449 47.8565 171.128 48.1918 170.693 48.4418C170.259 48.6889 169.702 48.8125 169.023 48.8125H166.909V47.875H168.989C169.457 47.875 169.834 47.794 170.118 47.6321C170.402 47.4702 170.608 47.2514 170.736 46.9759C170.866 46.6974 170.932 46.3835 170.932 46.0341C170.932 45.6847 170.866 45.3722 170.736 45.0966C170.608 44.821 170.401 44.6051 170.114 44.4489C169.827 44.2898 169.446 44.2102 168.972 44.2102H167.114V52H166.057ZM175.464 52.1534C175.049 52.1534 174.673 52.0753 174.335 51.919C173.996 51.7599 173.728 51.5312 173.529 51.233C173.33 50.9318 173.231 50.5682 173.231 50.142C173.231 49.767 173.305 49.4631 173.452 49.2301C173.6 48.9943 173.798 48.8097 174.045 48.6761C174.292 48.5426 174.565 48.4432 174.863 48.3778C175.164 48.3097 175.467 48.2557 175.771 48.2159C176.168 48.1648 176.491 48.1264 176.738 48.1009C176.988 48.0724 177.17 48.0256 177.283 47.9602C177.4 47.8949 177.458 47.7812 177.458 47.6193V47.5852C177.458 47.1648 177.343 46.8381 177.113 46.6051C176.886 46.3722 176.54 46.2557 176.077 46.2557C175.597 46.2557 175.221 46.3608 174.948 46.571C174.675 46.7812 174.484 47.0057 174.373 47.2443L173.418 46.9034C173.589 46.5057 173.816 46.196 174.1 45.9744C174.387 45.75 174.7 45.5937 175.038 45.5057C175.379 45.4148 175.714 45.3693 176.043 45.3693C176.254 45.3693 176.495 45.3949 176.768 45.446C177.043 45.4943 177.309 45.5952 177.565 45.7486C177.823 45.902 178.038 46.1335 178.208 46.4432C178.379 46.7528 178.464 47.1676 178.464 47.6875V52H177.458V51.1136H177.407C177.339 51.2557 177.225 51.4077 177.066 51.5696C176.907 51.7315 176.695 51.8693 176.431 51.983C176.167 52.0966 175.844 52.1534 175.464 52.1534ZM175.617 51.25C176.015 51.25 176.35 51.1719 176.623 51.0156C176.898 50.8594 177.106 50.6577 177.245 50.4105C177.387 50.1634 177.458 49.9034 177.458 49.6307V48.7102C177.415 48.7614 177.322 48.8082 177.177 48.8509C177.035 48.8906 176.87 48.9261 176.683 48.9574C176.498 48.9858 176.317 49.0114 176.141 49.0341C175.968 49.054 175.827 49.071 175.719 49.0852C175.458 49.1193 175.214 49.1747 174.987 49.2514C174.762 49.3253 174.58 49.4375 174.441 49.5881C174.305 49.7358 174.237 49.9375 174.237 50.1932C174.237 50.5426 174.366 50.8068 174.624 50.9858C174.886 51.1619 175.217 51.25 175.617 51.25ZM180.713 54.4545C180.542 54.4545 180.39 54.4403 180.257 54.4119C180.123 54.3864 180.031 54.3608 179.98 54.3352L180.235 53.4489C180.48 53.5114 180.696 53.5341 180.883 53.517C181.071 53.5 181.237 53.4162 181.382 53.2656C181.529 53.1179 181.664 52.8778 181.787 52.5455L181.974 52.0341L179.554 45.4545H180.645L182.451 50.6705H182.52L184.326 45.4545H185.417L182.639 52.9545C182.514 53.2926 182.359 53.5724 182.174 53.794C181.99 54.0185 181.775 54.1847 181.531 54.2926C181.289 54.4006 181.017 54.4545 180.713 54.4545ZM186.745 52V45.4545H187.716V46.4773H187.801C187.938 46.1278 188.158 45.8565 188.462 45.6634C188.766 45.4673 189.131 45.3693 189.557 45.3693C189.989 45.3693 190.348 45.4673 190.635 45.6634C190.925 45.8565 191.151 46.1278 191.313 46.4773H191.381C191.549 46.1392 191.8 45.8707 192.135 45.6719C192.471 45.4702 192.873 45.3693 193.341 45.3693C193.926 45.3693 194.405 45.5526 194.777 45.919C195.15 46.2827 195.336 46.8494 195.336 47.6193V52H194.33V47.6193C194.33 47.1364 194.198 46.7912 193.934 46.5838C193.669 46.3764 193.358 46.2727 193 46.2727C192.54 46.2727 192.184 46.4119 191.931 46.6903C191.678 46.9659 191.551 47.3153 191.551 47.7386V52H190.529V47.517C190.529 47.1449 190.408 46.8452 190.167 46.6179C189.925 46.3878 189.614 46.2727 189.233 46.2727C188.972 46.2727 188.728 46.3423 188.5 46.4815C188.276 46.6207 188.094 46.8139 187.955 47.0611C187.819 47.3054 187.75 47.5881 187.75 47.9091V52H186.745ZM199.919 52.1364C199.288 52.1364 198.744 51.9972 198.287 51.7188C197.832 51.4375 197.481 51.0455 197.234 50.5426C196.99 50.0369 196.868 49.4489 196.868 48.7784C196.868 48.108 196.99 47.517 197.234 47.0057C197.481 46.4915 197.825 46.0909 198.265 45.804C198.708 45.5142 199.225 45.3693 199.816 45.3693C200.157 45.3693 200.494 45.4261 200.826 45.5398C201.159 45.6534 201.461 45.8381 201.734 46.0938C202.007 46.3466 202.224 46.6818 202.386 47.0994C202.548 47.517 202.629 48.0312 202.629 48.642V49.0682H197.583V48.1989H201.606C201.606 47.8295 201.532 47.5 201.385 47.2102C201.24 46.9205 201.032 46.6918 200.762 46.5241C200.495 46.3565 200.18 46.2727 199.816 46.2727C199.416 46.2727 199.069 46.3722 198.777 46.571C198.487 46.767 198.264 47.0227 198.108 47.3381C197.951 47.6534 197.873 47.9915 197.873 48.3523V48.9318C197.873 49.4261 197.958 49.8452 198.129 50.1889C198.302 50.5298 198.542 50.7898 198.849 50.9688C199.156 51.1449 199.512 51.233 199.919 51.233C200.183 51.233 200.422 51.196 200.635 51.1222C200.85 51.0455 201.037 50.9318 201.193 50.7812C201.349 50.6278 201.47 50.4375 201.555 50.2102L202.527 50.483C202.424 50.8125 202.252 51.1023 202.011 51.3523C201.77 51.5994 201.471 51.7926 201.116 51.9318C200.761 52.0682 200.362 52.1364 199.919 52.1364ZM205.164 48.0625V52H204.159V45.4545H205.13V46.4773H205.216C205.369 46.1449 205.602 45.8778 205.914 45.6761C206.227 45.4716 206.63 45.3693 207.125 45.3693C207.568 45.3693 207.956 45.4602 208.288 45.642C208.62 45.821 208.879 46.0938 209.064 46.4602C209.248 46.8239 209.341 47.2841 209.341 47.8409V52H208.335V47.9091C208.335 47.3949 208.201 46.9943 207.934 46.7074C207.667 46.4176 207.301 46.2727 206.835 46.2727C206.514 46.2727 206.227 46.3423 205.974 46.4815C205.724 46.6207 205.527 46.8239 205.382 47.0909C205.237 47.358 205.164 47.6818 205.164 48.0625ZM214.025 45.4545V46.3068H210.633V45.4545H214.025ZM211.621 43.8864H212.627V50.125C212.627 50.4091 212.668 50.6222 212.751 50.7642C212.836 50.9034 212.944 50.9972 213.075 51.0455C213.208 51.0909 213.349 51.1136 213.496 51.1136C213.607 51.1136 213.698 51.108 213.769 51.0966C213.84 51.0824 213.897 51.071 213.94 51.0625L214.144 51.9659C214.076 51.9915 213.981 52.017 213.859 52.0426C213.737 52.071 213.582 52.0852 213.394 52.0852C213.11 52.0852 212.832 52.0241 212.559 51.902C212.289 51.7798 212.065 51.5938 211.886 51.3438C211.71 51.0938 211.621 50.7784 211.621 50.3977V43.8864Z" fill="#727272"/>
<circle cx="189" cy="12" r="11.5" stroke="#797979"/>
<circle cx="189" cy="12" r="4.5" fill="#797979" stroke="#797979"/>
<path opacity="0.8" d="M339.057 52V43.2727H342.006C342.69 43.2727 343.25 43.3963 343.685 43.6435C344.122 43.8878 344.446 44.2188 344.656 44.6364C344.866 45.054 344.972 45.5199 344.972 46.0341C344.972 46.5483 344.866 47.0156 344.656 47.4361C344.449 47.8565 344.128 48.1918 343.693 48.4418C343.259 48.6889 342.702 48.8125 342.023 48.8125H339.909V47.875H341.989C342.457 47.875 342.834 47.794 343.118 47.6321C343.402 47.4702 343.608 47.2514 343.736 46.9759C343.866 46.6974 343.932 46.3835 343.932 46.0341C343.932 45.6847 343.866 45.3722 343.736 45.0966C343.608 44.821 343.401 44.6051 343.114 44.4489C342.827 44.2898 342.446 44.2102 341.972 44.2102H340.114V52H339.057ZM346.538 52V45.4545H347.509V46.4432H347.577C347.697 46.1193 347.913 45.8565 348.225 45.6548C348.538 45.4531 348.89 45.3523 349.282 45.3523C349.356 45.3523 349.448 45.3537 349.559 45.3565C349.67 45.3594 349.754 45.3636 349.81 45.3693V46.392C349.776 46.3835 349.698 46.3707 349.576 46.3537C349.457 46.3338 349.33 46.3239 349.197 46.3239C348.879 46.3239 348.594 46.3906 348.344 46.5241C348.097 46.6548 347.901 46.8366 347.756 47.0696C347.614 47.2997 347.543 47.5625 347.543 47.858V52H346.538ZM353.548 52.1364C352.917 52.1364 352.373 51.9972 351.915 51.7188C351.461 51.4375 351.11 51.0455 350.863 50.5426C350.619 50.0369 350.496 49.4489 350.496 48.7784C350.496 48.108 350.619 47.517 350.863 47.0057C351.11 46.4915 351.454 46.0909 351.894 45.804C352.337 45.5142 352.854 45.3693 353.445 45.3693C353.786 45.3693 354.123 45.4261 354.455 45.5398C354.788 45.6534 355.09 45.8381 355.363 46.0938C355.636 46.3466 355.853 46.6818 356.015 47.0994C356.177 47.517 356.258 48.0312 356.258 48.642V49.0682H351.212V48.1989H355.235C355.235 47.8295 355.161 47.5 355.013 47.2102C354.869 46.9205 354.661 46.6918 354.391 46.5241C354.124 46.3565 353.809 46.2727 353.445 46.2727C353.045 46.2727 352.698 46.3722 352.406 46.571C352.116 46.767 351.893 47.0227 351.737 47.3381C351.58 47.6534 351.502 47.9915 351.502 48.3523V48.9318C351.502 49.4261 351.587 49.8452 351.758 50.1889C351.931 50.5298 352.171 50.7898 352.478 50.9688C352.785 51.1449 353.141 51.233 353.548 51.233C353.812 51.233 354.05 51.196 354.263 51.1222C354.479 51.0455 354.665 50.9318 354.822 50.7812C354.978 50.6278 355.099 50.4375 355.184 50.2102L356.156 50.483C356.053 50.8125 355.881 51.1023 355.64 51.3523C355.398 51.5994 355.1 51.7926 354.745 51.9318C354.39 52.0682 353.991 52.1364 353.548 52.1364ZM362.941 45.4545L360.52 52H359.498L357.077 45.4545H358.168L359.975 50.6705H360.043L361.85 45.4545H362.941ZM364.268 52V45.4545H365.274V52H364.268ZM364.779 44.3636C364.583 44.3636 364.414 44.2969 364.272 44.1634C364.133 44.0298 364.064 43.8693 364.064 43.6818C364.064 43.4943 364.133 43.3338 364.272 43.2003C364.414 43.0668 364.583 43 364.779 43C364.975 43 365.143 43.0668 365.282 43.2003C365.424 43.3338 365.495 43.4943 365.495 43.6818C365.495 43.8693 365.424 44.0298 365.282 44.1634C365.143 44.2969 364.975 44.3636 364.779 44.3636ZM369.86 52.1364C369.229 52.1364 368.685 51.9972 368.228 51.7188C367.773 51.4375 367.423 51.0455 367.175 50.5426C366.931 50.0369 366.809 49.4489 366.809 48.7784C366.809 48.108 366.931 47.517 367.175 47.0057C367.423 46.4915 367.766 46.0909 368.207 45.804C368.65 45.5142 369.167 45.3693 369.758 45.3693C370.099 45.3693 370.435 45.4261 370.768 45.5398C371.1 45.6534 371.403 45.8381 371.675 46.0938C371.948 46.3466 372.165 46.6818 372.327 47.0994C372.489 47.517 372.57 48.0312 372.57 48.642V49.0682H367.525V48.1989H371.548C371.548 47.8295 371.474 47.5 371.326 47.2102C371.181 46.9205 370.974 46.6918 370.704 46.5241C370.437 46.3565 370.121 46.2727 369.758 46.2727C369.357 46.2727 369.011 46.3722 368.718 46.571C368.428 46.767 368.205 47.0227 368.049 47.3381C367.893 47.6534 367.815 47.9915 367.815 48.3523V48.9318C367.815 49.4261 367.9 49.8452 368.07 50.1889C368.244 50.5298 368.484 50.7898 368.79 50.9688C369.097 51.1449 369.454 51.233 369.86 51.233C370.124 51.233 370.363 51.196 370.576 51.1222C370.792 51.0455 370.978 50.9318 371.134 50.7812C371.29 50.6278 371.411 50.4375 371.496 50.2102L372.468 50.483C372.366 50.8125 372.194 51.1023 371.952 51.3523C371.711 51.5994 371.413 51.7926 371.058 51.9318C370.702 52.0682 370.303 52.1364 369.86 52.1364ZM375.583 52L373.589 45.4545H374.646L376.06 50.4659H376.129L377.526 45.4545H378.6L379.981 50.4489H380.049L381.464 45.4545H382.521L380.526 52H379.538L378.106 46.9716H378.004L376.572 52H375.583Z" fill="#727272"/>
<circle cx="359" cy="12" r="11.5" stroke="#797979"/>
<circle cx="359" cy="12" r="4.3" fill="#797979" stroke="#797979"/>
</svg>
