<svg width="18" height="22" viewBox="0 0 18 22" fill="none" xmlns="http://www.w3.org/2000/svg">
<path d="M15.711 5.0985C15.5718 5.02649 15.4363 4.94756 15.3049 4.862C14.9233 4.60966 14.5733 4.31236 14.2627 3.9765C13.4844 3.08642 13.1938 2.1835 13.0875 1.55192H13.0912C13.0023 1.02667 13.0389 0.6875 13.0453 0.6875H9.50242V14.3853C9.50242 14.5686 9.50242 14.751 9.49509 14.9307C9.49509 14.9527 9.49234 14.9728 9.49142 14.9976C9.49142 15.0068 9.49142 15.0177 9.48867 15.0278V15.0361C9.45147 15.5274 9.29407 16.0021 9.03032 16.4183C8.76658 16.8346 8.40458 17.1796 7.97617 17.4231C7.52923 17.6774 7.02371 17.8107 6.5095 17.8099C4.8595 17.8099 3.52117 16.4643 3.52117 14.8023C3.52117 13.1395 4.8595 11.7938 6.5095 11.7938C6.82209 11.7938 7.13284 11.8433 7.42984 11.9405L7.43442 8.3325C6.53243 8.21613 5.61612 8.28801 4.74331 8.54361C3.8705 8.7992 3.06015 9.23296 2.36342 9.8175C1.75279 10.3478 1.23939 10.9807 0.846338 11.6875C0.696921 11.9451 0.132255 12.9818 0.0644213 14.663C0.021338 15.6163 0.308255 16.6063 0.444838 17.0143V17.0234C0.530088 17.2636 0.863755 18.0849 1.40642 18.777C1.84403 19.3325 2.36108 19.8205 2.94092 20.2253V20.2162L2.94917 20.2253C4.66334 21.3895 6.56542 21.3134 6.56542 21.3134C6.8945 21.2997 7.99725 21.3134 9.24942 20.7203C10.6382 20.0622 11.4283 19.0823 11.4283 19.0823C11.9335 18.4966 12.3353 17.8292 12.6163 17.1087C12.9372 16.2653 13.0435 15.2552 13.0435 14.8518V7.58358C13.0866 7.60925 13.6595 7.98783 13.6595 7.98783C13.6595 7.98783 14.4845 8.51675 15.7706 8.8605C16.6928 9.10525 17.9367 9.1575 17.9367 9.1575V5.64025C17.5013 5.68792 16.6167 5.55042 15.7101 5.09942L15.711 5.0985Z" fill="#F5F5F5"/>
</svg>
