<svg width="24" height="24" viewBox="0 0 24 24" fill="none" xmlns="http://www.w3.org/2000/svg">
<path d="M14 4.75H6C4.20507 4.75 2.75 6.20507 2.75 8V16C2.75 17.7949 4.20507 19.25 6 19.25H14C15.7949 19.25 17.25 17.7949 17.25 16V8C17.25 6.20507 15.7949 4.75 14 4.75Z" stroke="#1B1B1B" stroke-width="1.5"/>
<path d="M14.25 9.5C14.25 8.5335 13.4665 7.75 12.5 7.75C11.5335 7.75 10.75 8.5335 10.75 9.5C10.75 10.4665 11.5335 11.25 12.5 11.25C13.4665 11.25 14.25 10.4665 14.25 9.5Z" stroke="#1B1B1B" stroke-width="1.5"/>
<path d="M17.75 10.0413C17.75 9.63343 17.949 9.25119 18.2832 9.01728L19.2832 8.31728C20.1116 7.73735 21.25 8.33004 21.25 9.34132V14.6587C21.25 15.67 20.1116 16.2627 19.2832 15.6827L18.2832 14.9827C17.949 14.7488 17.75 14.3666 17.75 13.9587V10.0413Z" stroke="#1B1B1B" stroke-width="1.5"/>
</svg>
