<svg width="16" height="16" viewBox="0 0 16 16" fill="none" xmlns="http://www.w3.org/2000/svg">
<g opacity="0.4">
<path d="M14.1717 7.30792C14.4877 7.72125 14.4877 8.27925 14.1717 8.69192C13.1763 9.99125 10.7883 12.6666 8.00033 12.6666C5.21233 12.6666 2.82433 9.99125 1.829 8.69192C1.67526 8.49401 1.5918 8.25053 1.5918 7.99992C1.5918 7.74931 1.67526 7.50583 1.829 7.30792C2.82433 6.00859 5.21233 3.33325 8.00033 3.33325C10.7883 3.33325 13.1763 6.00859 14.1717 7.30792V7.30792Z" stroke="#1B1B1B" stroke-width="1.25" stroke-linecap="round" stroke-linejoin="round"/>
<path d="M8 10C9.10457 10 10 9.10457 10 8C10 6.89543 9.10457 6 8 6C6.89543 6 6 6.89543 6 8C6 9.10457 6.89543 10 8 10Z" stroke="#1B1B1B" stroke-width="1.25" stroke-linecap="round" stroke-linejoin="round"/>
</g>
</svg>
